<?xml version="1.0" standalone="no"?>
<!DOCTYPE svg PUBLIC "-//W3C//DTD SVG 20010904//EN"
 "http://www.w3.org/TR/2001/REC-SVG-20010904/DTD/svg10.dtd">
<svg version="1.0" xmlns="http://www.w3.org/2000/svg"
 width="810.000000pt" height="1280.000000pt" viewBox="0 0 810.000000 1280.000000"
 preserveAspectRatio="xMidYMid meet">
<metadata>
Created by potrace 1.15, written by Peter Selinger 2001-2017
</metadata>
<g transform="translate(0.000000,1280.000000) scale(0.100000,-0.100000)"
fill="#000000" stroke="none">
<path d="M3265 12794 c-364 -29 -724 -116 -1044 -251 -1006 -426 -1735 -1347
-1920 -2423 -58 -340 -60 -754 -5 -1080 95 -564 318 -1061 683 -1520 98 -124
349 -374 478 -479 57 -45 103 -87 103 -94 0 -7 -7 -48 -15 -92 -51 -283 28
-606 207 -847 69 -93 192 -206 298 -274 75 -47 89 -60 85 -78 -3 -11 -149
-770 -325 -1686 -176 -916 -323 -1676 -326 -1689 -4 -21 -9 -22 -42 -16 -52 9
-1073 204 -1098 210 -20 4 -23 -3 -44 -116 -12 -66 -20 -123 -16 -126 3 -3 36
-12 73 -19 336 -64 598 -116 603 -119 3 -2 -3 -53 -15 -112 -20 -103 -22 -108
-46 -106 -13 1 -143 25 -288 53 -145 28 -265 49 -266 48 -7 -8 -47 -249 -42
-254 3 -3 130 -30 283 -60 152 -29 279 -55 281 -58 4 -3 -22 -160 -33 -197 -3
-13 -52 -6 -347 51 -188 37 -343 66 -345 65 -8 -6 -50 -251 -44 -256 4 -4 156
-35 337 -69 182 -35 333 -66 337 -69 4 -4 -2 -57 -14 -119 -16 -86 -25 -112
-37 -112 -15 0 -632 117 -661 126 -13 3 -20 -18 -38 -108 -12 -61 -20 -113
-18 -115 2 -2 178 -37 392 -78 214 -42 495 -96 624 -121 129 -24 348 -67 485
-93 138 -27 251 -48 251 -47 2 1 187 965 770 3991 107 556 199 1034 205 1063
10 48 12 52 39 52 16 0 51 5 78 11 l49 10 68 -51 c141 -107 368 -193 546 -207
l76 -6 21 -86 c12 -47 60 -234 106 -416 46 -181 137 -537 201 -790 64 -253
138 -545 165 -650 27 -104 90 -352 140 -550 50 -198 120 -473 156 -611 35
-139 64 -258 64 -266 0 -9 -64 -29 -207 -66 -564 -142 -918 -233 -921 -237 -5
-5 48 -227 57 -237 3 -4 31 0 61 8 220 58 613 154 616 151 3 -2 17 -52 33
-111 l29 -106 -37 -9 c-20 -5 -146 -38 -281 -72 -135 -34 -247 -63 -249 -65
-4 -4 51 -231 60 -245 4 -7 105 15 284 60 153 39 282 68 286 64 13 -15 51
-195 43 -202 -5 -4 -155 -45 -334 -90 -178 -45 -327 -84 -329 -87 -6 -6 49
-235 58 -246 4 -4 157 31 340 78 184 46 337 81 341 77 12 -14 59 -218 52 -224
-4 -4 -155 -44 -337 -90 -181 -45 -331 -83 -333 -84 -1 -1 10 -52 25 -114 21
-87 31 -110 43 -107 8 3 143 37 300 77 157 39 422 106 590 149 168 43 415 105
550 139 135 34 253 65 263 68 11 3 16 11 13 21 -5 16 -86 334 -582 2287 -113
446 -232 914 -264 1040 -104 408 -206 810 -315 1240 -58 231 -108 427 -111
436 -3 12 8 25 33 40 21 13 73 52 116 87 l77 63 78 -11 c42 -5 106 -11 141
-13 l63 -2 24 -65 c12 -36 187 -533 388 -1105 994 -2834 1305 -3718 1309
-3721 2 -2 190 62 418 142 228 80 605 213 838 295 233 82 425 150 427 152 3 2
-64 203 -71 215 -1 1 -150 -50 -330 -113 -181 -64 -332 -112 -336 -108 -8 9
-81 215 -77 218 2 1 147 53 323 115 176 62 323 116 328 119 4 4 -12 62 -35
129 -33 97 -46 121 -58 117 -148 -58 -645 -224 -650 -218 -9 11 -73 194 -69
197 2 2 45 17 94 34 249 85 441 154 448 161 5 5 -64 228 -78 248 0 1 -122 -40
-270 -93 -148 -52 -273 -93 -279 -91 -12 5 -84 203 -76 210 3 2 138 50 300
107 162 56 309 108 326 115 l32 13 -41 116 c-23 64 -46 116 -50 116 -4 0 -211
-72 -460 -159 -640 -225 -637 -224 -643 -218 -3 3 -168 466 -365 1029 -198
563 -457 1300 -575 1637 l-216 615 38 30 c129 102 238 234 308 375 89 178 120
308 119 506 0 145 -13 228 -54 353 l-21 62 99 98 c788 775 1125 1881 903 2962
-240 1171 -1132 2129 -2285 2455 -145 41 -328 78 -490 100 -115 16 -511 27
-620 19z m420 -614 c455 -39 880 -185 1242 -427 593 -396 991 -990 1127 -1678
36 -183 47 -301 46 -514 0 -438 -91 -815 -291 -1201 -118 -227 -264 -431 -441
-615 l-87 -90 -28 17 c-173 102 -259 139 -391 168 -128 28 -234 34 -352 21
-233 -28 -430 -113 -619 -271 l-60 -50 -78 11 c-86 12 -297 6 -352 -10 -32
-10 -39 -8 -85 27 -227 170 -509 251 -778 224 -228 -24 -409 -98 -595 -243
-35 -27 -65 -49 -68 -49 -12 0 -218 185 -287 259 -393 418 -632 927 -703 1491
-18 146 -20 450 -5 596 116 1070 877 1964 1915 2249 288 79 603 109 890 85z
m1015 -4917 c21 -6 8 -15 -94 -64 l-120 -58 -32 37 c-18 20 -33 40 -34 43 0 5
87 33 135 43 34 6 119 6 145 -1z m-1947 -79 c17 -6 10 -19 -60 -113 -5 -6
-243 82 -243 90 0 4 26 13 58 19 31 7 62 14 67 16 14 5 158 -4 178 -12z m2394
-472 c-13 -135 -72 -257 -165 -343 -57 -53 -175 -116 -233 -125 l-37 -6 9 43
c4 24 8 99 9 166 l0 121 173 85 c94 47 186 94 202 105 17 11 34 21 39 21 5 1
6 -29 3 -67z m-2919 -134 c53 -23 137 -56 185 -73 l88 -31 5 -83 c3 -45 11
-113 19 -149 7 -37 12 -68 10 -70 -7 -7 -110 30 -155 56 -102 58 -206 186
-235 287 -23 80 -28 105 -21 105 3 0 50 -19 104 -42z m1548 -555 c24 -28 44
-54 44 -56 0 -3 -26 -13 -57 -23 -59 -18 -246 -25 -270 -11 -8 5 6 31 42 79
30 40 68 98 85 130 l32 59 40 -63 c22 -35 60 -86 84 -115z"/>
</g>
</svg>
